<?xml version="1.0" encoding="UTF-8" standalone="no"?>
<!-- Created with Inkscape (http://www.inkscape.org/) -->

<svg
   version="1.1"
   id="svg1"
   width="1555.7227"
   height="1463.5751"
   viewBox="0 0 1555.7227 1463.575"
   sodipodi:docname="motor.svg"
   inkscape:export-filename="../../PycharmProjects/chiki/assets/motor-off.png"
   inkscape:export-xdpi="7.8985801"
   inkscape:export-ydpi="7.8985801"
   xmlns:inkscape="http://www.inkscape.org/namespaces/inkscape"
   xmlns:sodipodi="http://sodipodi.sourceforge.net/DTD/sodipodi-0.dtd"
   xmlns="http://www.w3.org/2000/svg"
   xmlns:svg="http://www.w3.org/2000/svg">
  <defs
     id="defs1" />
  <sodipodi:namedview
     id="namedview1"
     pagecolor="#ffffff"
     bordercolor="#000000"
     borderopacity="0.25"
     inkscape:showpageshadow="2"
     inkscape:pageopacity="0.0"
     inkscape:pagecheckerboard="0"
     inkscape:deskcolor="#d1d1d1">
    <inkscape:page
       x="0"
       y="0"
       inkscape:label="1"
       id="page1"
       width="1555.7227"
       height="1463.575"
       margin="0"
       bleed="0" />
  </sodipodi:namedview>
  <g
     id="g1"
     inkscape:groupmode="layer"
     inkscape:label="1"
     transform="translate(-2650.5676,-395.50355)">
    <g
       id="g36"
       transform="matrix(0.83340756,0,0,0.83472424,559.63161,186.3139)">
      <g
         id="g37"
         transform="translate(31.097824,24.149044)">
        <path
           id="path20"
           d="m 3817.8609,1363.7893 h -699.64 c -34.6,0 -62.76,-28.152 -62.76,-62.7507 V 873.62272 c 0,-34.604 28.16,-62.756 62.76,-62.756 h 699.64 c 34.6,0 62.7466,28.152 62.7466,62.75067 v 427.42121 c 0,34.5987 -28.1466,62.7507 -62.7466,62.7507 z m -699.64,-529.18258 c -21.52,0 -39.0267,17.5 -39.0267,39.016 v 427.41588 c 0,21.516 17.5067,39.016 39.0267,39.016 h 699.64 c 21.5066,0 39.0133,-17.5 39.0133,-39.0106 V 873.62272 c 0,-21.51067 -17.5067,-39.02133 -39.0133,-39.02133 h -699.64 z"
           style="fill:#808080;fill-opacity:1;fill-rule:evenodd;stroke:none;stroke-width:0.133333" />
        <path
           id="path21"
           d="m 3747.8875,1363.7893 c -6.5466,0 -11.8666,-5.3133 -11.8666,-11.8707 V 822.73739 c 0,-6.55734 5.32,-11.87067 11.8666,-11.87067 6.56,0 11.88,5.31333 11.88,11.87067 v 529.18121 c 0,6.5574 -5.32,11.8707 -11.88,11.8707 z m -559.7066,0 c -6.56,0 -11.8667,-5.3133 -11.8667,-11.8707 V 822.73739 c 0,-6.55734 5.3067,-11.87067 11.8667,-11.87067 6.56,0 11.8666,5.31333 11.8666,11.87067 v 529.18121 c 0,6.5574 -5.3066,11.8707 -11.8666,11.8707 z"
           style="fill:#808080;fill-opacity:1;fill-rule:evenodd;stroke:none;stroke-width:0.133333" />
        <path
           id="path22"
           d="m 3677.9275,1297.6373 h -419.7733 c -6.56,0 -11.8667,-5.3173 -11.8667,-11.864 V 888.88805 c 0,-6.552 5.3067,-11.86533 11.8667,-11.86533 h 419.7733 c 6.5467,0 11.8667,5.308 11.8667,11.86533 v 396.88525 c 0,6.552 -5.3067,11.864 -11.8667,11.864 z m -407.9066,-23.7333 h 396.0466 V 900.75738 h -396.0466 z"
           style="fill:#808080;fill-opacity:1;fill-rule:evenodd;stroke:none;stroke-width:0.133333" />
        <path
           id="path23"
           d="m 3887.8342,1218.768 h -19.0933 c -6.56,0 -11.8667,-5.3067 -11.8667,-11.8694 0,-6.552 5.3067,-11.8653 11.8667,-11.8653 h 19.0933 c 21.5067,0 39.0133,-17.5053 39.0133,-39.0147 v -137.3853 c 0,-21.51058 -17.5066,-39.01058 -39.0133,-39.01058 h -19.0933 c -6.56,0 -11.8667,-5.31334 -11.8667,-11.87067 0,-6.55733 5.3067,-11.86933 11.8667,-11.86933 h 19.0933 c 34.6,0 62.7467,28.15066 62.7467,62.75058 v 137.3853 c 0,34.604 -28.1467,62.7494 -62.7467,62.7494 z"
           style="fill:#808080;fill-opacity:1;fill-rule:evenodd;stroke:none;stroke-width:0.133333" />
        <path
           id="path24"
           d="m 3067.3276,1185.6946 h -99.2134 c -17.76,0 -32.2266,-14.452 -32.2266,-32.224 V 1021.18 c 0,-17.7706 14.4666,-32.22395 32.2266,-32.22395 h 99.2134 c 6.56,0 11.8666,5.31733 11.8666,11.86935 0,6.5573 -5.3066,11.8639 -11.8666,11.8639 h -99.2134 c -4.68,0 -8.48,3.8134 -8.48,8.4907 v 132.296 c 0,4.6773 3.8,8.4853 8.48,8.4853 h 99.2134 c 6.56,0 11.8666,5.3067 11.8666,11.864 0,6.5573 -5.3066,11.8693 -11.8666,11.8693 z"
           style="fill:#808080;fill-opacity:1;fill-rule:evenodd;stroke:none;stroke-width:0.133333" />
        <path
           id="path25"
           d="m 2947.7676,1139.9186 h -86.4934 c -27.5866,0 -50.0266,-22.4426 -50.0266,-50.0253 0,-27.5893 22.44,-50.032 50.0266,-50.032 h 86.4934 c 6.56,0 11.8666,5.3187 11.8666,11.8707 0,6.552 -5.32,11.8693 -11.8666,11.8693 h -86.4934 c -14.5066,0 -26.2933,11.792 -26.2933,26.292 0,14.5 11.7867,26.292 26.2933,26.292 h 86.4934 c 6.56,0 11.8666,5.3173 11.8666,11.8693 0,6.5627 -5.32,11.864 -11.8666,11.864 z"
           style="fill:#808080;fill-opacity:1;fill-rule:evenodd;stroke:none;stroke-width:0.133333" />
        <path
           id="path26"
           d="m 3647.9942,834.60139 c -6.56,0 -11.8667,-5.30667 -11.8667,-11.864 v -93.848 c 0,-6.56 5.3067,-11.86667 11.8667,-11.86667 6.5467,0 11.8667,5.30667 11.8667,11.86667 v 93.848 c 0,6.552 -5.32,11.864 -11.8667,11.864 z m -359.9067,0 c -6.56,0 -11.8666,-5.30667 -11.8666,-11.864 v -93.848 c 0,-6.56 5.3066,-11.86667 11.8666,-11.86667 6.56,0 11.8667,5.30667 11.8667,11.86667 v 93.848 c 0,6.552 -5.3067,11.864 -11.8667,11.864 z"
           style="fill:#808080;fill-opacity:1;fill-rule:evenodd;stroke:none;stroke-width:0.133333" />
        <path
           id="path27"
           d="m 3691.9542,740.75606 h -447.8267 c -14.72,0 -26.7066,-11.97334 -26.7066,-26.70667 v -55.46667 c 0,-14.72 11.9733,-26.70666 26.7066,-26.70666 h 447.8267 c 14.7333,0 26.7067,11.98666 26.7067,26.70666 v 55.46667 c 0,14.72 -11.9734,26.70667 -26.7067,26.70667 z m -447.8267,-85.13334 c -1.6266,0 -2.9733,1.34667 -2.9733,2.96 v 55.46667 c 0,1.61333 1.3467,2.97333 2.9733,2.97333 h 447.8267 c 1.6133,0 2.9733,-1.36 2.9733,-2.97333 v -55.46667 c 0,-1.61333 -1.36,-2.96 -2.9733,-2.96 z"
           style="fill:#808080;fill-opacity:1;fill-rule:evenodd;stroke:none;stroke-width:0.133333" />
        <path
           id="path28"
           d="m 3677.9275,984.71072 h -419.7733 c -6.56,0 -11.8667,-5.31734 -11.8667,-11.86934 0,-6.552 5.3067,-11.87066 11.8667,-11.87066 h 419.7733 c 6.56,0 11.8667,5.31866 11.8667,11.87066 0,6.55734 -5.32,11.86934 -11.8667,11.86934 z"
           style="fill:#808080;fill-opacity:1;fill-rule:evenodd;stroke:none;stroke-width:0.133333" />
        <path
           id="path29"
           d="m 3677.9275,1137.356 h -419.7733 c -6.56,0 -11.8667,-5.3174 -11.8667,-11.8694 0,-6.552 5.3067,-11.8693 11.8667,-11.8693 h 419.7733 c 6.56,0 11.8667,5.3173 11.8667,11.8693 0,6.5574 -5.32,11.8694 -11.8667,11.8694 z"
           style="fill:#808080;fill-opacity:1;fill-rule:evenodd;stroke:none;stroke-width:0.133333" />
        <path
           id="path30"
           d="m 3677.9275,1213.68 h -419.7733 c -6.56,0 -11.8667,-5.3187 -11.8667,-11.8707 0,-6.552 5.3067,-11.8693 11.8667,-11.8693 h 419.7733 c 6.56,0 11.8667,5.312 11.8667,11.8693 0,6.5573 -5.32,11.8707 -11.8667,11.8707 z"
           style="fill:#808080;fill-opacity:1;fill-rule:evenodd;stroke:none;stroke-width:0.133333" />
        <path
           id="path31"
           d="m 3677.9275,1061.028 h -419.7733 c -6.56,0 -11.8667,-5.312 -11.8667,-11.8694 0,-6.5573 5.3067,-11.8693 11.8667,-11.8693 h 419.7733 c 6.56,0 11.8667,5.3174 11.8667,11.8693 0,6.5574 -5.32,11.8694 -11.8667,11.8694 z"
           style="fill:#808080;fill-opacity:1;fill-rule:evenodd;stroke:none;stroke-width:0.133333" />
        <path
           id="path32"
           d="m 3772.2475,1631.3306 h -608.4133 c -6.5467,0 -11.8667,-5.3173 -11.8667,-11.8693 v -107.3027 c 0,-15.8906 12.92,-28.812 28.8134,-28.812 h 574.5333 c 15.88,0 28.8,12.9214 28.8,28.812 v 107.2974 c 0,6.5573 -5.3067,11.8746 -11.8667,11.8746 z m -596.5466,-23.74 h 584.68 v -95.432 c 0,-2.7546 -2.3334,-5.0786 -5.0667,-5.0786 h -574.5333 c -2.76,0 -5.08,2.324 -5.08,5.0786 z"
           style="fill:#808080;fill-opacity:1;fill-rule:evenodd;stroke:none;stroke-width:0.133333" />
        <path
           id="path33"
           d="m 3686.8609,1507.08 c -6.56,0 -11.8667,-5.3174 -11.8667,-11.8694 v -143.2973 c 0,-6.552 5.3067,-11.8693 11.8667,-11.8693 6.5466,0 11.8666,5.3173 11.8666,11.8693 v 143.2973 c 0,6.5574 -5.32,11.8694 -11.8666,11.8694 z m -437.64,0 c -6.56,0 -11.8667,-5.3174 -11.8667,-11.8694 v -143.2973 c 0,-6.552 5.3067,-11.8693 11.8667,-11.8693 6.5466,0 11.8666,5.3173 11.8666,11.8693 v 143.2973 c 0,6.5574 -5.32,11.8694 -11.8666,11.8694 z"
           style="fill:#808080;fill-opacity:1;fill-rule:evenodd;stroke:none;stroke-width:0.133333" />
        <path
           id="path34"
           d="m 3127.7675,1217.8773 c -6.56,0 -11.88,-5.312 -11.88,-11.8693 V 968.64805 c 0,-6.55733 5.32,-11.86933 11.88,-11.86933 6.5467,0 11.8667,5.30666 11.8667,11.86933 V 1206.008 c 0,6.552 -5.32,11.8693 -11.8667,11.8693 z"
           style="fill:#808080;fill-opacity:1;fill-rule:evenodd;stroke:none;stroke-width:0.133333" />
        <path
           id="path35"
           d="m 3808.3142,1217.8773 c -6.5467,0 -11.8667,-5.312 -11.8667,-11.8693 V 968.64805 c 0,-6.55733 5.32,-11.86933 11.8667,-11.86933 6.56,0 11.8667,5.30666 11.8667,11.86933 V 1206.008 c 0,6.552 -5.3067,11.8693 -11.8667,11.8693 z"
           style="fill:#808080;fill-opacity:1;fill-rule:evenodd;stroke:none;stroke-width:0.133333" />
      </g>
      <path
         id="path36"
         d="m 2869.3391,395.50354 h 1118.1797 c 60.1867,0 114.8902,23.14244 154.5312,60.43527 39.6406,37.29284 64.2403,88.75615 64.2403,145.37783 V 1653.2636 c 0,56.6227 -24.5997,108.0837 -64.2403,145.3767 -39.641,37.2888 -94.3445,60.4384 -154.5312,60.4384 H 2869.3391 c -60.1865,0 -114.8902,-23.1496 -154.531,-60.4384 -39.6408,-37.293 -64.2404,-88.7569 -64.2404,-145.3767 V 601.31664 c 0,-56.62168 24.5996,-108.08499 64.2404,-145.37783 39.6408,-37.29283 94.3445,-60.43527 154.531,-60.43527 z m 1118.1797,45.7329 H 2869.3391 c -46.7667,0 -89.3091,18.0242 -120.1599,47.03755 -30.8508,29.02338 -49.9992,69.04594 -49.9992,113.04265 V 1653.2636 c 0,43.9958 19.1484,84.0133 49.9992,113.0386 30.8508,29.0212 73.3932,47.0386 120.1599,47.0386 h 1118.1797 c 46.7668,0 89.2986,-18.0174 120.1493,-47.0386 30.8616,-29.0253 49.9992,-69.0428 49.9992,-113.0386 V 601.31664 c 0,-43.99671 -19.1376,-84.00923 -49.9992,-113.04265 -30.8507,-29.01335 -73.3825,-47.03755 -120.1493,-47.03755 z"
         style="fill:#808080;fill-opacity:1;fill-rule:nonzero;stroke:none;stroke-width:0.103468"
         sodipodi:nodetypes="ssssscsscsssssscsscsscsscs" />
      <path
         id="path36-3"
         d="m 2890.3278,417.15585 h 1071.4033 c 57.6691,0 110.084,22.24122 148.0669,58.08179 37.9823,35.84058 61.5529,85.29979 61.5529,139.7165 V 1625.936 c 0,54.4177 -23.5706,103.8747 -61.5529,139.7154 -37.9829,35.8368 -90.3978,58.0848 -148.0669,58.0848 H 2890.3278 c -57.6688,0 -110.0841,-22.248 -148.0666,-58.0848 -37.9825,-35.8407 -61.553,-85.3006 -61.553,-139.7154 V 614.95414 c 0,-54.41671 23.5705,-103.87592 61.553,-139.7165 37.9825,-35.84057 90.3978,-58.08179 148.0666,-58.08179 z m 1071.4033,43.95197 H 2890.3278 c -44.8103,0 -85.5729,17.32229 -115.1334,45.20581 -29.5602,27.89315 -47.9075,66.35714 -47.9075,108.64051 V 1625.936 c 0,42.2826 18.3473,80.7416 47.9075,108.6366 29.5605,27.8911 70.3231,45.2069 115.1334,45.2069 h 1071.4033 c 44.8104,0 85.563,-17.3158 115.1231,-45.2069 29.5708,-27.895 47.9076,-66.354 47.9076,-108.6366 V 614.95414 c 0,-42.28337 -18.3368,-80.73773 -47.9076,-108.64051 -29.5601,-27.88352 -70.3127,-45.20581 -115.1231,-45.20581 z"
         style="fill:#999999;fill-opacity:1;fill-rule:nonzero;stroke:none;stroke-width:0.0992888"
         sodipodi:nodetypes="ssssscsscsssssscsscsscsscs" />
    </g>
  </g>
</svg>
